<?xml version="1.0" encoding="utf-8"?>
<!-- Svg Vector Icons : http://www.onlinewebfonts.com/icon -->
<!DOCTYPE svg PUBLIC "-//W3C//DTD SVG 1.1//EN" "http://www.w3.org/Graphics/SVG/1.1/DTD/svg11.dtd">
<svg version="1.1" xmlns="http://www.w3.org/2000/svg" xmlns:xlink="http://www.w3.org/1999/xlink" x="0px" y="0px" viewBox="0 0 1000 1000" enable-background="new 0 0 1000 1000" xml:space="preserve">
<metadata> Svg Vector Icons : http://www.onlinewebfonts.com/icon </metadata>
<g><g transform="translate(0.000000,511.000000) scale(0.100000,-0.100000)"><path d="M5132.6,3947.4c-148.8-20.1-335.7-84.4-510.6-174.9c-130.7-66.3-305.6-235.2-2277.6-2203.3C-13.7-784.8,100.9-658.1,100.9-915.4c0-249.3-24.1-219.1,1298.6-1541.9C2716.2-3772,2674-3735.8,2923.3-3735.8c257.3,0,120.6-122.6,2418.3,2173.1C6650.3-256.1,7466.5,574.2,7528.8,660.6c52.3,74.4,126.7,211.1,160.8,301.5c102.5,263.3,116.6,394,96.5,892.6c-8.1,239.2-18.1,530.7-20.1,647.3l-4,211.1l106.5,6c144.7,8.1,406.1-46.2,552.8-116.6c164.8-80.4,345.8-233.2,470.4-396c176.9-231.2,424.2-786,476.4-1063.4c16.1-82.4,12.1-82.4,309.6-10c273.4,68.3,263.3,34.2,136.7,424.2c-158.8,490.5-367.9,868.4-637.3,1151.9c-637.2,667.4-1541.9,731.7-2631.4,189c-432.2-217.1-910.6-550.8-962.9-673.4c-74.4-180.9,50.3-371.9,245.3-371.9c94.5,0,86.4-4,422.1,235.2c98.5,70.4,189,124.6,199,118.6c28.1-18.1,0-233.2-48.3-343.7c-56.3-132.7-223.1-289.5-353.8-333.7c-52.3-18.1-154.8-32.2-227.2-32.2c-550.8,2-818.2,679.5-420.1,1067.5c444.3,430.2,1411.2,896.6,2056.5,989c98.5,14.1,180.9,34.2,185,46.2c14.1,42.2-122.6,170.9-245.3,231.2l-128.7,62.3l-769.9,28.1c-424.2,14.1-878.5,28.1-1011.2,34.2C5353.7,3959.4,5194.9,3955.4,5132.6,3947.4z M3478.1,1229.5l54.3-48.3l136.7-1475.5c76.4-812.1,138.7-1509.7,138.7-1549.9c0-166.8-178.9-247.3-295.5-132.7l-52.3,54.3L3323.4-459.1C3247,345,3186.7,1042.5,3184.6,1090.8C3184.6,1257.6,3353.5,1336,3478.1,1229.5z M4897.4,527.9c144.7-66.3,285.5-207.1,353.8-353.8c46.3-98.5,54.3-140.7,54.3-305.6s-8-207.1-54.3-305.6c-68.3-146.7-207.1-285.5-353.8-353.8c-98.5-46.3-140.7-54.3-295.5-54.3c-156.8,0-197,8-305.6,58.3c-152.8,70.4-289.5,209.1-363.9,369.9c-44.2,96.5-54.3,142.7-54.3,285.5c0,142.7,10,189,54.3,283.4c90.5,199,255.3,343.8,464.4,412.1C4527.5,608.3,4760.7,590.2,4897.4,527.9z M2603.7,69.6c313.6-98.5,504.6-357.8,504.6-683.5c2-281.4-148.8-526.7-400.1-653.3c-106.5-54.3-134.7-60.3-317.6-60.3c-182.9,0-211.1,6-317.6,58.3c-444.3,225.1-542.8,810.1-195,1157.9C2077,89.7,2338.3,154,2603.7,69.6z"/><path d="M4521.5,156c-122.6-32.2-211.1-152.8-211.1-291.5c0-116.6,60.3-209.1,166.8-257.3c108.6-50.3,142.7-50.3,249.3,2c98.5,48.3,166.8,154.8,166.8,259.3C4893.4,53.5,4702.4,200.2,4521.5,156z"/><path d="M2229.8-372.7c-184.9-122.6-168.9-408.1,30.2-506.6c253.3-128.7,512.6,138.7,390,398C2583.6-340.5,2364.5-284.2,2229.8-372.7z"/></g></g>
</svg>